<svg xmlns="http://www.w3.org/2000/svg" width="168" height="29" viewBox="0 0 168 29">
  <g id="Grupo_88" data-name="Grupo 88" transform="translate(2827 -3002)">
    <path id="Caminho_6" data-name="Caminho 6" d="M12.6-10.008a3.346,3.346,0,0,1-1.512,2.961A7.871,7.871,0,0,1,6.7-6.03H5.166v3.168a5.506,5.506,0,0,0,.09,1.107,1.112,1.112,0,0,0,.378.657,1.592,1.592,0,0,0,.792.306,9.995,9.995,0,0,0,1.35.072V0H.63V-.72A4.968,4.968,0,0,0,1.6-.828a1.105,1.105,0,0,0,.576-.306,1.206,1.206,0,0,0,.27-.612A5.934,5.934,0,0,0,2.52-2.772v-8.316a6.582,6.582,0,0,0-.063-1.017,1.3,1.3,0,0,0-.243-.612.906.906,0,0,0-.513-.306,5.321,5.321,0,0,0-.873-.117v-.72H7.056a7.275,7.275,0,0,1,4.14.972A3.275,3.275,0,0,1,12.6-10.008ZM5.166-7.11h1.17a3.849,3.849,0,0,0,2.556-.7,2.779,2.779,0,0,0,.81-2.214,2.958,2.958,0,0,0-.684-2.088,2.792,2.792,0,0,0-2.142-.738H5.49q-.324,0-.324.306ZM18.36-9.72a5.66,5.66,0,0,1,2.043.369A5.461,5.461,0,0,1,22.1-8.334,4.78,4.78,0,0,1,23.247-6.8a4.5,4.5,0,0,1,.423,1.953,4.759,4.759,0,0,1-.423,2.016A4.9,4.9,0,0,1,22.1-1.242,5.416,5.416,0,0,1,20.4-.2,5.541,5.541,0,0,1,18.36.18a5.539,5.539,0,0,1-2.016-.369A5.2,5.2,0,0,1,14.67-1.224a4.821,4.821,0,0,1-1.134-1.593,4.909,4.909,0,0,1-.414-2.025A4.638,4.638,0,0,1,13.536-6.8,4.7,4.7,0,0,1,14.67-8.352,5.241,5.241,0,0,1,16.344-9.36,5.662,5.662,0,0,1,18.36-9.72Zm0,1.044a1.842,1.842,0,0,0-.99.279,2.39,2.39,0,0,0-.765.783A4.081,4.081,0,0,0,16.119-6.4a6.74,6.74,0,0,0-.171,1.575,7.029,7.029,0,0,0,.171,1.62A4.075,4.075,0,0,0,16.6-1.98a2.427,2.427,0,0,0,.756.783,1.829,1.829,0,0,0,1,.279A1.92,1.92,0,0,0,19.377-1.2a2.411,2.411,0,0,0,.783-.792,4.208,4.208,0,0,0,.5-1.233,6.609,6.609,0,0,0,.18-1.6,6.309,6.309,0,0,0-.18-1.566,4.228,4.228,0,0,0-.5-1.215,2.411,2.411,0,0,0-.783-.792A1.92,1.92,0,0,0,18.36-8.676ZM28.98-2.79a7.582,7.582,0,0,0,.063,1.107,1.163,1.163,0,0,0,.261.621.97.97,0,0,0,.576.279,6.4,6.4,0,0,0,1.008.063V0H24.876V-.72a5.984,5.984,0,0,0,.864-.108.8.8,0,0,0,.486-.288,1.262,1.262,0,0,0,.207-.621,10.354,10.354,0,0,0,.045-1.089v-2.2q0-1.116-.054-1.782A2.878,2.878,0,0,0,26.19-7.83a.9.9,0,0,0-.513-.477,2.691,2.691,0,0,0-.873-.117v-.63l3.6-.666.288,2.07h.072a4.063,4.063,0,0,1,1.278-1.512,2.859,2.859,0,0,1,1.674-.558,1.744,1.744,0,0,1,1.116.342,1.057,1.057,0,0,1,.432.864,1.459,1.459,0,0,1-.333.972,1.125,1.125,0,0,1-.909.4,1.072,1.072,0,0,1-.486-.108,2.235,2.235,0,0,1-.387-.243q-.171-.135-.342-.252a.615.615,0,0,0-.351-.117.832.832,0,0,0-.648.45,3.919,3.919,0,0,0-.5,1.206,9.73,9.73,0,0,0-.234,1.215,10.137,10.137,0,0,0-.09,1.341Zm9.234-5.76v-.81a4.738,4.738,0,0,0,1.809-.927,4.011,4.011,0,0,0,1.089-1.431h.918V-9.54H44.1v.99H42.03v5.526a3.7,3.7,0,0,0,.243,1.584.849.849,0,0,0,.819.468,1.149,1.149,0,0,0,1.062-.648l.378.522A2.253,2.253,0,0,1,42.156.18,2.943,2.943,0,0,1,40.221-.4a1.99,1.99,0,0,1-.693-1.62V-8.55Zm11.07,5.76a7.582,7.582,0,0,0,.063,1.107,1.163,1.163,0,0,0,.261.621.97.97,0,0,0,.576.279,6.4,6.4,0,0,0,1.008.063V0H45.18V-.72a5.984,5.984,0,0,0,.864-.108.8.8,0,0,0,.486-.288,1.262,1.262,0,0,0,.207-.621,10.354,10.354,0,0,0,.045-1.089v-2.2q0-1.116-.054-1.782a2.878,2.878,0,0,0-.234-1.026.9.9,0,0,0-.513-.477,2.691,2.691,0,0,0-.873-.117v-.63l3.6-.666L49-7.65h.072a4.063,4.063,0,0,1,1.278-1.512A2.859,2.859,0,0,1,52.02-9.72a1.744,1.744,0,0,1,1.116.342,1.057,1.057,0,0,1,.432.864,1.459,1.459,0,0,1-.333.972,1.125,1.125,0,0,1-.909.4,1.072,1.072,0,0,1-.486-.108,2.235,2.235,0,0,1-.387-.243q-.171-.135-.342-.252a.615.615,0,0,0-.351-.117.832.832,0,0,0-.648.45,3.919,3.919,0,0,0-.5,1.206,9.731,9.731,0,0,0-.234,1.215,10.137,10.137,0,0,0-.09,1.341ZM59.8-5.13a12.072,12.072,0,0,0-2.277,1.269,1.6,1.6,0,0,0-.765,1.215,1.159,1.159,0,0,0,.288.828.948.948,0,0,0,.72.306,2.138,2.138,0,0,0,.81-.153,2.084,2.084,0,0,0,.648-.4,1.8,1.8,0,0,0,.423-.6A1.849,1.849,0,0,0,59.8-3.42Zm0-.954V-6.84a2.5,2.5,0,0,0-.369-1.521,1.354,1.354,0,0,0-1.143-.477,1.053,1.053,0,0,0-.792.279,2.648,2.648,0,0,0-.5.927,1.612,1.612,0,0,1-.459.7,1.227,1.227,0,0,1-.819.252.978.978,0,0,1-.774-.306,1.263,1.263,0,0,1-.27-.864,1.524,1.524,0,0,1,.945-1.368,6.269,6.269,0,0,1,2.853-.5,4.479,4.479,0,0,1,2.88.729,3.034,3.034,0,0,1,.864,2.439V-2.61q0,1.53.612,1.53a.978.978,0,0,0,.63-.234l.27.522a1.747,1.747,0,0,1-.783.711,2.678,2.678,0,0,1-1.2.261,1.568,1.568,0,0,1-1.26-.5,2.12,2.12,0,0,1-.432-1.422h-.09a3.678,3.678,0,0,1-1.35,1.422,3.663,3.663,0,0,1-1.89.486A2.556,2.556,0,0,1,54.9-.477a2.174,2.174,0,0,1-.684-1.665,2.07,2.07,0,0,1,.7-1.485,7.324,7.324,0,0,1,2.34-1.359ZM56.34-11.718l2.286-2.142a3.294,3.294,0,0,1,.8-.594,1.653,1.653,0,0,1,.729-.18,1.119,1.119,0,0,1,.72.216.719.719,0,0,1,.27.594.662.662,0,0,1-.333.54,5.332,5.332,0,0,1-.909.486l-2.5,1.08ZM65.466,0h-.558V-3.276h.756a4.023,4.023,0,0,0,.882,1.89,1.988,1.988,0,0,0,1.494.594,1.685,1.685,0,0,0,1.035-.279.907.907,0,0,0,.369-.765,1.431,1.431,0,0,0-.45-.981,5.826,5.826,0,0,0-1.458-1.017A6.528,6.528,0,0,1,65.574-5.3a2.538,2.538,0,0,1-.594-1.647A2.725,2.725,0,0,1,65.2-8.055a2.809,2.809,0,0,1,.612-.891,2.683,2.683,0,0,1,.927-.585,3.242,3.242,0,0,1,1.17-.207,3.893,3.893,0,0,1,1.107.162,3.316,3.316,0,0,1,.963.45l.324-.432h.468V-6.84h-.7a4.608,4.608,0,0,0-.855-1.476,1.444,1.444,0,0,0-1.071-.45,1.145,1.145,0,0,0-.8.27.926.926,0,0,0-.3.72,1.354,1.354,0,0,0,.441.954,6.09,6.09,0,0,0,1.467.99,11.94,11.94,0,0,1,1.242.774,4.663,4.663,0,0,1,.846.765,2.686,2.686,0,0,1,.477.81,2.653,2.653,0,0,1,.153.909,2.662,2.662,0,0,1-.234,1.134,2.462,2.462,0,0,1-.666.864,3.115,3.115,0,0,1-1.035.558A4.282,4.282,0,0,1,68.4.18a4.829,4.829,0,0,1-1.44-.207,2.848,2.848,0,0,1-1.1-.6Z" transform="translate(-2817 3022)" fill="#2a2a2a"/>
    <path id="Ret창ngulo_29" data-name="Ret창ngulo 29" d="M2,2V27H97V2H2M0,0H99V29H0Z" transform="translate(-2827 3002)" fill="#484848"/>
    <rect id="Ret창ngulo_28" data-name="Ret창ngulo 28" width="75" height="29" transform="translate(-2734 3002)" fill="#f8f50d"/>
    <path id="Caminho_7" data-name="Caminho 7" d="M8.658-1.152H8.586A4.2,4.2,0,0,1,5.364.18,4.8,4.8,0,0,1,3.483-.18,4.365,4.365,0,0,1,2.007-1.188a4.554,4.554,0,0,1-.963-1.539A5.459,5.459,0,0,1,.7-4.7a5.549,5.549,0,0,1,.351-2,5.1,5.1,0,0,1,.954-1.593,4.258,4.258,0,0,1,1.44-1.053A4.344,4.344,0,0,1,5.256-9.72a4.367,4.367,0,0,1,1.593.27,2.913,2.913,0,0,1,1.215.918h.072v-1.53q0-1.062-.027-1.827a6.706,6.706,0,0,0-.081-1,.787.787,0,0,0-.549-.549,4.328,4.328,0,0,0-1.413-.171v-.612l4.554-.72v10.3q0,1.35.027,2.079a7.931,7.931,0,0,0,.1,1.107,1.3,1.3,0,0,0,.108.378.521.521,0,0,0,.216.225,1.026,1.026,0,0,0,.387.108,5.819,5.819,0,0,0,.621.027v.7l-3.42.2ZM8.1-5.166a5.3,5.3,0,0,0-.144-1.269A3.422,3.422,0,0,0,7.524-7.47,2.179,2.179,0,0,0,6.7-8.262a2.253,2.253,0,0,0-1.08-.27A1.769,1.769,0,0,0,4-7.56a5.769,5.769,0,0,0-.558,2.826A6.037,6.037,0,0,0,4-1.854,1.748,1.748,0,0,0,5.6-.846a2.267,2.267,0,0,0,1.134-.306,2.534,2.534,0,0,0,.882-.828,2.861,2.861,0,0,0,.369-.981,7.9,7.9,0,0,0,.117-1.5ZM18.4-9.72a5.66,5.66,0,0,1,2.043.369,5.461,5.461,0,0,1,1.692,1.017A4.78,4.78,0,0,1,23.283-6.8a4.5,4.5,0,0,1,.423,1.953,4.759,4.759,0,0,1-.423,2.016,4.9,4.9,0,0,1-1.152,1.584A5.416,5.416,0,0,1,20.439-.2,5.541,5.541,0,0,1,18.4.18,5.539,5.539,0,0,1,16.38-.189a5.2,5.2,0,0,1-1.674-1.035,4.821,4.821,0,0,1-1.134-1.593,4.909,4.909,0,0,1-.414-2.025A4.638,4.638,0,0,1,13.572-6.8a4.7,4.7,0,0,1,1.134-1.548A5.241,5.241,0,0,1,16.38-9.36,5.662,5.662,0,0,1,18.4-9.72Zm0,1.044a1.842,1.842,0,0,0-.99.279,2.39,2.39,0,0,0-.765.783A4.081,4.081,0,0,0,16.155-6.4a6.74,6.74,0,0,0-.171,1.575,7.029,7.029,0,0,0,.171,1.62,4.075,4.075,0,0,0,.486,1.224A2.427,2.427,0,0,0,17.4-1.2a1.829,1.829,0,0,0,1,.279A1.92,1.92,0,0,0,19.413-1.2a2.411,2.411,0,0,0,.783-.792,4.208,4.208,0,0,0,.5-1.233,6.609,6.609,0,0,0,.18-1.6A6.309,6.309,0,0,0,20.7-6.39a4.228,4.228,0,0,0-.5-1.215,2.411,2.411,0,0,0-.783-.792A1.92,1.92,0,0,0,18.4-8.676ZM35.352-5.13a12.072,12.072,0,0,0-2.277,1.269,1.6,1.6,0,0,0-.765,1.215,1.159,1.159,0,0,0,.288.828.948.948,0,0,0,.72.306,2.138,2.138,0,0,0,.81-.153,2.084,2.084,0,0,0,.648-.4,1.8,1.8,0,0,0,.423-.6,1.849,1.849,0,0,0,.153-.747Zm0-.954V-6.84a2.5,2.5,0,0,0-.369-1.521,1.354,1.354,0,0,0-1.143-.477,1.053,1.053,0,0,0-.792.279,2.648,2.648,0,0,0-.5.927,1.612,1.612,0,0,1-.459.7,1.227,1.227,0,0,1-.819.252.978.978,0,0,1-.774-.306,1.263,1.263,0,0,1-.27-.864,1.524,1.524,0,0,1,.945-1.368,6.269,6.269,0,0,1,2.853-.5,4.479,4.479,0,0,1,2.88.729,3.034,3.034,0,0,1,.864,2.439V-2.61q0,1.53.612,1.53a.978.978,0,0,0,.63-.234l.27.522a1.747,1.747,0,0,1-.783.711A2.678,2.678,0,0,1,37.3.18a1.568,1.568,0,0,1-1.26-.5A2.12,2.12,0,0,1,35.6-1.746h-.09a3.679,3.679,0,0,1-1.35,1.422,3.663,3.663,0,0,1-1.89.486,2.556,2.556,0,0,1-1.818-.639,2.174,2.174,0,0,1-.684-1.665,2.07,2.07,0,0,1,.7-1.485,7.324,7.324,0,0,1,2.34-1.359Zm4.59-2.466v-.81a4.738,4.738,0,0,0,1.809-.927,4.011,4.011,0,0,0,1.089-1.431h.918V-9.54h2.07v.99h-2.07v5.526A3.7,3.7,0,0,0,44-1.44a.849.849,0,0,0,.819.468,1.149,1.149,0,0,0,1.062-.648l.378.522A2.253,2.253,0,0,1,43.884.18,2.943,2.943,0,0,1,41.949-.4a1.99,1.99,0,0,1-.693-1.62V-8.55Zm12.33-1.17a5.66,5.66,0,0,1,2.043.369,5.461,5.461,0,0,1,1.692,1.017A4.78,4.78,0,0,1,57.159-6.8a4.5,4.5,0,0,1,.423,1.953,4.759,4.759,0,0,1-.423,2.016,4.9,4.9,0,0,1-1.152,1.584A5.416,5.416,0,0,1,54.315-.2,5.541,5.541,0,0,1,52.272.18a5.539,5.539,0,0,1-2.016-.369,5.2,5.2,0,0,1-1.674-1.035,4.821,4.821,0,0,1-1.134-1.593,4.909,4.909,0,0,1-.414-2.025A4.638,4.638,0,0,1,47.448-6.8a4.7,4.7,0,0,1,1.134-1.548A5.241,5.241,0,0,1,50.256-9.36,5.662,5.662,0,0,1,52.272-9.72Zm0,1.044a1.842,1.842,0,0,0-.99.279,2.39,2.39,0,0,0-.765.783A4.081,4.081,0,0,0,50.031-6.4a6.74,6.74,0,0,0-.171,1.575,7.029,7.029,0,0,0,.171,1.62,4.075,4.075,0,0,0,.486,1.224,2.427,2.427,0,0,0,.756.783,1.829,1.829,0,0,0,1,.279A1.92,1.92,0,0,0,53.289-1.2a2.411,2.411,0,0,0,.783-.792,4.208,4.208,0,0,0,.5-1.233,6.609,6.609,0,0,0,.18-1.6,6.309,6.309,0,0,0-.18-1.566,4.228,4.228,0,0,0-.5-1.215,2.411,2.411,0,0,0-.783-.792A1.92,1.92,0,0,0,52.272-8.676Z" transform="translate(-2726 3022)" fill="#2a2a2a"/>
  </g>
</svg>
